<?xml version="1.0" encoding="utf-8"?>
<!-- Generator: Adobe Illustrator 25.0.1, SVG Export Plug-In . SVG Version: 6.00 Build 0)  -->
<svg version="1.1" id="Capa_1" xmlns="http://www.w3.org/2000/svg" xmlns:xlink="http://www.w3.org/1999/xlink" x="0px" y="0px"
	 viewBox="0 0 1262 1320" style="enable-background:new 0 0 1262 1320;" xml:space="preserve">
<style type="text/css">
	.st0{fill:#333333;}
</style>
<path class="st0" d="M948,41.9L781,244l173,190.6l178-196.8L948,41.9z"/>
<path class="st0" d="M240,276.1C160,217.4,140,108.7,189,0C-160.4,324.9,0.8,678.4,464,785.6c308,71.3,478,131.8,548,215.5
	c84.9,101.5,20,252.4-16,318.9c424-249.4,298-703.8-84-794.5l-7-1.7C550.3,439.6,420.8,408.8,240,276.1z"/>
<path class="st0" d="M226,851.5l-176,196l176,201.3l180-201.3L226,851.5z"/>
</svg>
